<svg xmlns="http://www.w3.org/2000/svg" xmlns:xlink="http://www.w3.org/1999/xlink" version="1.1" x="0px" y="0px" viewBox="0 0 100 125" enable-background="new 0 0 100 100" xml:space="preserve"><g><path d="M50,34.5c-4.412,0-8.001,3.589-8.001,8c0,4.412,3.589,8.001,8.001,8.001c4.411,0,8-3.589,8-8.001   C58,38.088,54.411,34.5,50,34.5z M50,48.5c-3.309,0-6.001-2.692-6.001-6.001s2.692-6,6.001-6s6,2.691,6,6S53.309,48.5,50,48.5z"/><path d="M50,15.5c-4.412,0-8.001,3.589-8.001,8c0,4.412,3.589,8.001,8.001,8.001c4.411,0,8-3.589,8-8.001   C58,19.088,54.411,15.5,50,15.5z M50,29.5c-3.309,0-6.001-2.692-6.001-6.001s2.692-6,6.001-6s6,2.691,6,6S53.309,29.5,50,29.5z"/><path d="M50,53.5c-4.412,0-8.001,3.588-8.001,8s3.589,8,8.001,8c4.411,0,8-3.588,8-8S54.411,53.5,50,53.5z M50,67.5   c-3.309,0-6.001-2.691-6.001-6s2.692-6,6.001-6s6,2.691,6,6S53.309,67.5,50,67.5z"/><path d="M71.269,52.5H68v-2h0.704c2.123,0,3.966-1.288,4.696-3.28l2.564-6.994c0.58-1.58,0.368-3.209-0.595-4.589   c-0.963-1.378-2.419-2.137-4.102-2.137H68v-2h0.704c2.123,0,3.966-1.288,4.696-3.281l2.564-6.994   c0.58-1.579,0.369-3.208-0.595-4.588c-0.963-1.378-2.419-2.137-4.102-2.137H68V14.5c0-2.757-2.243-4.999-5-4.999H37   c-2.757,0-5,2.242-5,4.999V14.5h-3.269c-1.683,0-3.139,0.759-4.103,2.138c-0.962,1.378-1.174,3.007-0.595,4.586l2.564,6.995   c0.73,1.993,2.574,3.281,4.697,3.281H32v2h-3.269c-1.683,0-3.139,0.759-4.103,2.138c-0.962,1.378-1.174,3.007-0.595,4.588   l2.564,6.993c0.73,1.993,2.574,3.281,4.697,3.281H32v2h-3.269c-1.682,0-3.139,0.76-4.102,2.137   c-0.963,1.379-1.175,3.008-0.596,4.588l2.564,6.994c0.729,1.994,2.574,3.281,4.697,3.281H32v1c0,2.758,2.243,5,5,5h7v14   c0,0.553,0.447,1,1,1s1-0.447,1-1v-14h8.01v14c0,0.553,0.447,1,1,1s1-0.447,1-1v-14H63c2.757,0,5-2.242,5-5v-1h0.704   c2.123,0,3.967-1.287,4.696-3.281l2.564-6.994c0.58-1.58,0.369-3.209-0.595-4.588C74.407,53.26,72.95,52.5,71.269,52.5z    M31.296,29.5c-1.294,0-2.375-0.755-2.82-1.969l-2.563-6.995c-0.353-0.962-0.229-1.914,0.356-2.753   c0.587-0.84,1.438-1.283,2.463-1.283H32v13H31.296z M31.296,48.5c-1.294,0-2.375-0.755-2.82-1.97l-2.563-6.993   c-0.353-0.963-0.229-1.915,0.356-2.754c0.587-0.84,1.438-1.283,2.463-1.283H32v13H31.296z M31.296,67.5   c-1.294,0-2.375-0.754-2.82-1.969l-2.563-6.994c-0.353-0.963-0.229-1.914,0.356-2.754c0.587-0.84,1.438-1.283,2.463-1.283H32v13   H31.296z M66,70.5c0,1.654-1.346,3-3,3H37c-1.654,0-3-1.346-3-3v-56c0-1.653,1.346-2.999,3-2.999h26c1.654,0,3,1.346,3,2.999V70.5z    M71.269,35.5c1.024,0,1.876,0.443,2.462,1.282c0.587,0.84,0.71,1.792,0.357,2.754l-2.564,6.995   c-0.445,1.214-1.525,1.969-2.819,1.969H68v-13H71.269z M71.269,16.5c1.024,0,1.876,0.443,2.462,1.282   c0.587,0.84,0.71,1.792,0.357,2.754l-2.564,6.995c-0.445,1.214-1.525,1.969-2.819,1.969H68v-13H71.269z M74.088,58.537   l-2.564,6.994c-0.445,1.215-1.525,1.969-2.819,1.969H68v-13h3.269c1.024,0,1.876,0.443,2.463,1.283   C74.317,56.623,74.44,57.574,74.088,58.537z"/></g></svg>